#!OML:ASF E:\CV Data\Top Level 1\Subject 1\Session 1\player.ASF
:FULLY-SPECIFIED
:DEGREES
422
root 5.41659 14.4972 3.08766 -161.722 -120.055 155.621
lowerback 13.8675 -4.78163 3.08999
upperback -1.76478 -5.52061 4.35676
thorax -9.55077 -2.71429 4.18192
lowerneck -19.7515 14.5966 -5.71396
upperneck 23.6456 20.789 5.35368
head 9.47696 9.70387 5.35684
rclavicle -6.02566e-015 1.78906e-015
rhumerus -21.3913 -46.7871 32.1674
rradius 62.0081
rwrist -25.2786
rhand -34.901 9.55532
rfingers 7.12502
rthumb -8.04923 -20.2714
lclavicle -6.02566e-015 1.78906e-015
lhumerus -48.0091 5.63117 12.7436
lradius 19.2518
lwrist -5.00819
lhand -17.1165 21.9851
lfingers 7.12502
lthumb 9.12296 51.7678
rfemur 10.6558 -0.424782 9.27817
rtibia 49.9418
rfoot -21.0293 -14.8188
rtoes -37.3176
lfemur -59.2077 35.2509 -0.95593
ltibia 43.9153
lfoot 4.94061 14.5937
ltoes 12.0112
423
root 5.3319 14.4628 3.31437 -160.977 -121.913 155.476
lowerback 13.4018 -4.68726 3.28192
upperback -2.16297 -5.35522 4.59837
thorax -9.72363 -2.63811 4.28729
lowerneck -19.8285 14.4195 -5.57158
upperneck 23.7941 20.5003 5.41196
head 9.57026 9.57969 5.35229
rclavicle -4.83047e-014 -3.47873e-014
rhumerus -18.9263 -49.0437 31.6419
rradius 61.4019
rwrist -23.6979
rhand -35.8235 10.3285
rfingers 7.12502
rthumb -8.93945 -19.4621
lclavicle -4.83047e-014 -3.47873e-014
lhumerus -49.6004 6.95433 15.0043
lradius 19.8582
lwrist -2.07102
lhand -17.914 22.2072
lfingers 7.12502
lthumb 8.35328 52.022
rfemur 11.0928 -0.0954848 10.1435
rtibia 49.4356
rfoot -19.066 -14.5579
rtoes -38.2518
lfemur -60.5927 35.4242 -1.65791
ltibia 45.2509
lfoot 5.3598 14.2653
ltoes 12.6489
424
root 5.24373 14.4284 3.5449 -160.288 -123.982 155.421
lowerback 12.8786 -4.55558 3.41521
upperback -2.58575 -5.15306 4.85047
thorax -9.88534 -2.54173 4.42656
lowerneck -19.9271 14.1795 -5.42252
upperneck 23.9355 20.1085 5.52135
head 9.66599 9.4165 5.35388
rclavicle 7.10407e-014 7.55382e-015
rhumerus -16.421 -51.7525 30.9217
rradius 60.7424
rwrist -22.2907
rhand -36.7082 10.7479
rfingers 7.12502
rthumb -9.79308 -19.0044
lclavicle 7.10407e-014 7.55382e-015
lhumerus -50.9922 8.2739 17.4824
lradius 20.6993
lwrist 0.823362
lhand -18.8244 22.3395
lfingers 7.12502
lthumb 7.47466 52.1874
rfemur 11.5862 0.229527 11.161
rtibia 48.7922
rfoot -16.8745 -14.3001
rtoes -39.0895
lfemur -62.1924 35.4472 -2.5552
ltibia 46.5874
lfoot 5.61058 13.8675
ltoes 12.9258
425
root 5.15271 14.3925 3.7777 -159.714 -126.28 155.497
lowerback 12.3523 -4.39053 3.45938
upperback -3.03052 -4.92171 5.08646
thorax -10.0646 -2.42628 4.59552
lowerneck -20.0654 13.8757 -5.2464
upperneck 24.0735 19.5974 5.71686
head 9.76795 9.21328 5.37022
rclavicle -1.70706e-014 6.48038e-014
rhumerus -13.8027 -54.9461 29.8394
rradius 60.1063
rwrist -21.1129
rhand -37.6028 10.9407
rfingers 7.12502
rthumb -10.6562 -18.7691
lclavicle -1.70706e-014 6.48038e-014
lhumerus -52.1473 9.62906 20.0978
lradius 21.7663
lwrist 3.45069
lhand -19.8357 22.3306
lfingers 7.12502
lthumb 6.49841 52.2109
rfemur 12.16 0.546898 12.316
rtibia 47.9875
rfoot -14.4209 -14.0309
rtoes -39.7578
lfemur -63.9653 35.2625 -3.64834
ltibia 47.9125
lfoot 5.76536 13.4324
ltoes 12.9674
426
root 5.05973 14.3535 4.01131 -159.286 -128.819 155.703
lowerback 11.8772 -4.19442 3.43011
upperback -3.48447 -4.65971 5.26755
thorax -10.285 -2.29162 4.74777
lowerneck -20.2463 13.499 -5.03177
upperneck 24.1879 18.937 6.04031
head 9.86846 8.96453 5.40843
rclavicle -6.17226e-014 2.38542e-014
rhumerus -11.0616 -58.5546 28.3371
rradius 59.5643
rwrist -20.2782
rhand -38.5804 11.0303
rfingers 7.12502
rthumb -11.599 -18.6287
lclavicle -6.17226e-014 2.38542e-014
lhumerus -52.999 11.0304 22.7692
lradius 23.0063
lwrist 5.62432
lhand -20.8633 22.1801
lfingers 7.12502
lthumb 5.50633 52.0886
rfemur 12.8367 0.845469 13.6036
rtibia 46.9996
rfoot -11.6297 -13.7593
rtoes -40.2415
lfemur -65.8192 34.8089 -4.87888
ltibia 49.1985
lfoot 5.89895 13.018
ltoes 12.8452
427
root 4.9655 14.3087 4.24474 -159.017 -131.599 156.021
lowerback 11.5147 -3.97727 3.32767
upperback -3.94109 -4.37639 5.38175
thorax -10.5772 -2.14126 4.87717
lowerneck -20.4708 13.0545 -4.79239
upperneck 24.2733 18.1298 6.51827
head 9.96306 8.67438 5.47857
rclavicle -3.65515e-014 1.11319e-014
rhumerus -7.99982 -62.5451 26.1852
rradius 59.2127
rwrist -19.8176
rhand -39.6937 11.2806
rfingers 7.12502
rthumb -12.6725 -18.3149
lclavicle -3.65515e-014 1.11319e-014
lhumerus -53.5384 12.47 25.4445
lradius 24.352
lwrist 7.25909
lhand -21.7697 21.8994
lfingers 7.12502
lthumb 4.63114 51.8287
rfemur 13.6366 1.13599 15.0191
rtibia 45.8121
rfoot -8.48246 -13.4897
rtoes -40.3551
lfemur -67.6549 34.05 -6.18323
ltibia 50.4096
lfoot 6.09147 12.6826
ltoes 12.569
428
root 4.87064 14.2589 4.47665 -158.892 -134.626 156.416
lowerback 11.3022 -3.74135 3.18974
upperback -4.39068 -4.06805 5.41129
thorax -10.9584 -1.9757 4.94387
lowerneck -20.708 12.5303 -4.54274
upperneck 24.2821 17.1572 7.158
head 10.0314 8.33625 5.57694
rclavicle -3.91854e-014 5.00937e-014
rhumerus -4.3947 -66.8336 23.1346
rradius 59.1545
rwrist -19.7447
rhand -40.9395 11.8947
rfingers 7.12502
rthumb -13.8733 -17.6226
lclavicle -3.91854e-014 5.00937e-014
lhumerus -53.6907 13.8827 28.1344
lradius 25.7062
lwrist 8.38748
lhand -22.4241 21.6106
lfingers 7.12502
lthumb 3.99925 51.5529
rfemur 14.548 1.37827 16.5684
rtibia 44.426
rfoot -4.90288 -13.2694
rtoes -40.0566
lfemur -69.475 33.0012 -7.54505
ltibia 51.5121
lfoot 6.67938 12.5416
ltoes 12.1489
429
root 4.7758 14.2071 4.70598 -158.897 -137.888 156.851
lowerback 11.2918 -3.49197 3.03283
upperback -4.82905 -3.73701 5.35888
thorax -11.4571 -1.79665 4.94407
lowerneck -20.9559 11.9249 -4.26591
upperneck 24.2113 16.0217 7.92446
head 10.0814 7.94641 5.6909
rclavicle -1.35919e-014 -2.06736e-014
rhumerus 0.236046 -71.3121 18.73
rradius 59.4488
rwrist -20.0459
rhand -42.2413 13.0129
rfingers 7.12502
rthumb -15.1277 -16.4142
lclavicle -1.35919e-014 -2.06736e-014
lhumerus -53.4316 15.2268 30.8418
lradius 26.9709
lwrist 9.10693
lhand -22.7823 21.3326
lfingers 7.12502
lthumb 3.65329 51.2811
rfemur 15.5514 1.54328 18.2556
rtibia 42.8763
rfoot -0.88239 -13.0576
rtoes -39.2719
lfemur -71.3059 31.7038 -8.93604
ltibia 52.5058
lfoot 7.55263 12.3061
ltoes 11.9208
430
root 4.68198 14.1539 4.93046 -159.032 -141.384 157.336
lowerback 11.5091 -3.2332 2.85766
upperback -5.24662 -3.39003 5.2213
thorax -12.0794 -1.60788 4.87277
lowerneck -21.2378 11.2212 -4.0178
upperneck 24.06 14.716 8.83457
head 10.1158 7.4972 5.83542
rclavicle 6.52262e-014 5.32743e-014
rhumerus 6.96733 -75.8545 11.9227
rradius 60.1529
rwrist -20.6178
rhand -43.505 14.5432
rfingers 7.12502
rthumb -16.3446 -14.7881
lclavicle 6.52262e-014 5.32743e-014
lhumerus -52.7116 16.4725 33.5922
lradius 28.0814
lwrist 9.5581
lhand -22.8245 21.0864
lfingers 7.12502
lthumb 3.61262 51.0356
rfemur 16.5943 1.58178 20.0595
rtibia 41.2515
rfoot 3.55205 -12.6886
rtoes -38.16
lfemur -73.2047 30.173 -10.3797
ltibia 53.4333
lfoot 8.54432 11.6641
ltoes 11.6763
431
root 4.59044 14.0981 5.14643 -159.297 -145.109 157.888
lowerback 11.9711 -2.97155 2.65493
upperback -5.62348 -3.04064 5.00012
thorax -12.813 -1.41606 4.73471
lowerneck -21.5771 10.4076 -3.83818
upperneck 23.7982 13.2466 9.86797
head 10.1329 6.98449 6.01077
rclavicle -4.83792e-014 -5.40694e-014
rhumerus 19.1762 -80.3125 -0.631104
rradius 61.247
rwrist -21.2718
rhand -44.663 16.2942
rfingers 7.12502
rthumb -17.4594 -12.9417
lclavicle -4.83792e-014 -5.40694e-014
lhumerus -51.4959 17.6148 36.4215
lradius 28.9998
lwrist 9.90186
lhand -22.6764 20.8262
lfingers 7.12502
lthumb 3.75562 50.7728
rfemur 17.6009 1.43843 21.9441
rtibia 39.6899
rfoot 8.23824 -11.8422
rtoes -36.9937
lfemur -75.2154 28.4184 -11.9277
ltibia 54.3707
lfoot 9.45323 10.4765
ltoes 11.5985
